<?xml version="1.0" encoding="iso-8859-1"?>
<!-- Generator: Adobe Illustrator 19.0.0, SVG Export Plug-In . SVG Version: 6.00 Build 0)  -->
<svg version="1.1" id="Layer_1" xmlns="http://www.w3.org/2000/svg" xmlns:xlink="http://www.w3.org/1999/xlink" x="0px" y="0px"
	 viewBox="0 0 512.001 512.001" style="enable-background:new 0 0 512.001 512.001;" xml:space="preserve">
<rect x="218.263" y="14.195" style="fill:#FECC85;" width="75.461" height="81.721"/>
<path style="fill:#DE5E88;" d="M294.675,309.282c-21.672,0-38.674,18.035-38.674,18.035s-16.032-18.035-38.676-18.035
	c-22.025,0-40.01,20.292-41.187,44.863c-0.664,13.88,3.342,24.442,8.987,34.011c11.275,19.115,70.948,57.89,70.948,57.89
	s59.453-38.609,70.802-57.89c5.658-9.611,9.651-20.131,8.987-34.011C334.685,329.575,316.702,309.282,294.675,309.282"/>
<path style="fill:#BBDCE3;" d="M309.349,181.912V95.88H204.318v86.032c-63.019,21.652-110.91,82.252-110.91,153.68
	c0,89.588,72.324,162.214,161.912,162.214s163.274-72.626,163.274-162.214C418.594,264.164,372.366,203.564,309.349,181.912z
	 M326.877,388.158c-11.35,19.281-70.802,57.89-70.802,57.89s-59.673-38.775-70.948-57.89c-5.645-9.569-9.65-20.131-8.987-34.011
	c1.177-24.572,19.162-44.863,41.187-44.863c22.645,0,38.676,18.035,38.676,18.035s17.003-18.035,38.674-18.035
	c22.026,0,40.01,20.292,41.187,44.863C336.526,368.027,332.533,378.547,326.877,388.158z"/>
<path d="M323.544,172.094v-61.98h2.723c7.84,0,14.195-6.357,14.195-14.195s-6.355-14.195-14.195-14.195h-16.15
	c-0.255-0.014-0.51-0.038-0.768-0.038h-1.419v-67.49C307.929,6.357,301.574,0,293.734,0h-75.468c-7.84,0-14.195,6.357-14.195,14.195
	v67.503c-0.176,0.003-0.348,0.017-0.522,0.027h-17.813c-7.84,0-14.195,6.357-14.195,14.195s6.355,14.195,14.195,14.195h4.388v61.99
	c-29.967,12.34-56.784,33.204-76.297,59.531c-22.644,30.555-34.613,66.502-34.613,103.956c0,97.272,79.001,176.409,176.107,176.409
	c97.858,0,177.469-79.137,177.469-176.409C432.789,263.51,389.292,199.056,323.544,172.094z M279.539,28.39v53.295h-47.078V28.39
	H279.539z M255.319,483.61c-81.451,0-147.717-66.4-147.717-148.019c0-22.252,5.377-43.925,14.993-63.536h163.563
	c7.84,0,14.195-6.357,14.195-14.195c0-7.839-6.355-14.195-14.195-14.195H140.652c17.494-21.791,40.994-38.955,68.278-48.33
	c5.733-1.97,9.582-7.363,9.582-13.424v-71.797h76.641v71.797c0,6.063,3.85,11.454,9.582,13.424
	c59.612,20.483,99.662,76.848,99.662,140.256C404.399,417.21,337.522,483.61,255.319,483.61z"/>
<path d="M294.675,295.087c-16.204,0-29.818,7.262-38.588,13.573c-8.692-6.327-22.249-13.573-38.764-13.573
	c-29.477,0-53.796,25.643-55.366,58.381c-0.926,19.369,5.8,33.191,10.939,41.904c12.345,20.928,65.009,55.802,75.441,62.58
	c2.352,1.527,5.044,2.291,7.735,2.291c2.69,0,5.38-0.764,7.731-2.29c2.924-1.899,9.177-6.012,16.933-11.413
	c19.819-13.803,49.447-36.019,58.371-51.179v-0.001c5.137-8.724,11.859-22.562,10.933-41.892
	C348.473,320.73,324.153,295.087,294.675,295.087z M256.073,429.017c-20.935-14.135-47.291-33.888-56.455-44.937
	c-0.948-1.143-1.712-2.193-2.267-3.134c-2.014-3.414-3.569-6.646-4.701-9.839c-1.889-5.32-2.608-10.53-2.332-16.283
	c0.491-10.263,4.963-19.39,11.458-25.112c4.444-3.915,9.836-6.236,15.549-6.236c15.765,0,28.005,13.206,28.066,13.271
	c2.646,2.977,6.395,4.731,10.377,4.789c3.983,0.097,7.779-1.532,10.511-4.43c0.131-0.136,13.299-13.63,28.396-13.63
	c14.064,0,26.18,14.063,27.008,31.347c0.44,9.187-1.666,17.003-7.041,26.133C308.687,391.075,279.089,413.471,256.073,429.017z"/>
<path d="M315.406,263.283c0.355,0.866,0.795,1.688,1.306,2.454c0.511,0.782,1.107,1.506,1.76,2.159s1.377,1.249,2.158,1.76
	c0.767,0.51,1.604,0.951,2.456,1.306c0.852,0.355,1.746,0.639,2.654,0.823s1.845,0.268,2.768,0.268c0.937,0,1.86-0.085,2.782-0.268
	c0.908-0.185,1.803-0.468,2.654-0.823c0.852-0.355,1.675-0.796,2.442-1.306c0.781-0.511,1.505-1.107,2.158-1.76
	c0.667-0.653,1.249-1.377,1.774-2.159c0.511-0.767,0.951-1.588,1.306-2.454c0.355-0.852,0.625-1.746,0.809-2.654
	s0.27-1.845,0.27-2.768c0-0.921-0.085-1.86-0.27-2.768s-0.454-1.803-0.809-2.669c-0.355-0.852-0.795-1.675-1.306-2.442
	c-0.525-0.781-1.107-1.505-1.774-2.158c-0.653-0.653-1.377-1.251-2.158-1.76c-0.767-0.511-1.59-0.951-2.442-1.306
	s-1.746-0.625-2.654-0.809c-1.831-0.369-3.719-0.369-5.55,0c-0.908,0.185-1.803,0.454-2.654,0.809s-1.689,0.795-2.456,1.306
	c-0.781,0.51-1.505,1.107-2.158,1.76s-1.249,1.377-1.76,2.158c-0.511,0.767-0.951,1.59-1.306,2.442
	c-0.355,0.866-0.625,1.76-0.809,2.669c-0.185,0.91-0.284,1.847-0.284,2.768c0,0.923,0.099,1.861,0.284,2.768
	C314.781,261.535,315.051,262.431,315.406,263.283z"/>
<g>
</g>
<g>
</g>
<g>
</g>
<g>
</g>
<g>
</g>
<g>
</g>
<g>
</g>
<g>
</g>
<g>
</g>
<g>
</g>
<g>
</g>
<g>
</g>
<g>
</g>
<g>
</g>
<g>
</g>
</svg>
